<?xml version="1.0" encoding="utf-8"?>
<!-- Generator: Adobe Illustrator 25.2.1, SVG Export Plug-In . SVG Version: 6.00 Build 0)  -->
<svg version="1.1" id="Layer_1" xmlns="http://www.w3.org/2000/svg" xmlns:xlink="http://www.w3.org/1999/xlink" x="0px" y="0px"
	 viewBox="0 0 300 300" style="enable-background:new 0 0 300 300;" xml:space="preserve">
<style type="text/css">
	.st0{display:none;fill:#484648;stroke:#000000;stroke-miterlimit:10;}
	.st1{fill:#484648;stroke:#000000;stroke-miterlimit:10;}
</style>
<g>
	<g id="Icons_copy_1_">
		<path class="st0" d="M276.2,97h-94.5c-3.6,0-6.3,1.8-8.1,5.4L162.7,124h-25.2l7.2-14.4c1.8-2.7,0.9-6.3,0-9
			c-1.8-2.7-4.5-4.5-8.1-4.5H98.8c-44.1,0-80.1,33.3-83.7,75.6c-1.8,22.5,6.3,44.1,21.6,61.2S73.6,259,96.1,259s44.1-9,59.4-26.1
			c33.3-36,75.6-61.2,123.3-73.8c3.6-0.9,6.3-4.5,6.3-9v-45C285.2,100.6,281.6,97,276.2,97z M96.1,214c-19.8,0-36-16.2-36-36
			s16.2-36,36-36s36,16.2,36,36S115.9,214,96.1,214z"/>
		<path class="st1" d="M159.1,70c5.4,0,9-3.6,9-9V34c0-5.4-3.6-9-9-9s-9,3.6-9,9v27C150.1,66.4,153.7,70,159.1,70z"/>
		<path class="st1" d="M127.6,78.1c1.8,1.8,4.5,2.7,6.3,2.7c1.8,0,4.5-0.9,6.3-2.7c3.6-3.6,3.6-9,0-12.6l-18.9-18.9
			c-3.6-3.6-9-3.6-12.6,0s-3.6,9,0,12.6L127.6,78.1z"/>
		<path class="st1" d="M184.3,80.8c2.7,0,4.5-0.9,6.3-2.7l18.9-18.9c3.6-3.6,3.6-9,0-12.6s-9-3.6-12.6,0L178,65.5
			c-3.6,3.6-3.6,9,0,12.6C179.8,79.9,182.5,80.8,184.3,80.8z"/>
	</g>
	<g id="Icons_1_">
		<path class="st1" d="M276.2,97h-94.5c-3.6,0-6.3,1.8-8.1,5.4L162.7,124h-25.2l7.2-14.4c1.8-2.7,0.9-6.3,0-9
			c-1.8-2.7-4.5-4.5-8.1-4.5H98.8c-44.1,0-80.1,33.3-83.7,75.6c-1.8,22.5,6.3,44.1,21.6,61.2S73.6,259,96.1,259s44.1-9,59.4-26.1
			c33.3-36,75.6-61.2,123.3-73.8c3.6-0.9,6.3-4.5,6.3-9v-45C285.2,100.6,281.6,97,276.2,97z M96.1,214c-19.8,0-36-16.2-36-36
			s16.2-36,36-36s36,16.2,36,36S115.9,214,96.1,214z"/>
	</g>
</g>
</svg>
