<?xml version="1.0" encoding="utf-8"?>
<!-- Generator: Adobe Illustrator 25.2.1, SVG Export Plug-In . SVG Version: 6.00 Build 0)  -->
<svg version="1.1" id="Layer_1" xmlns="http://www.w3.org/2000/svg" xmlns:xlink="http://www.w3.org/1999/xlink" x="0px" y="0px"
	 viewBox="0 0 300 300" style="enable-background:new 0 0 300 300;" xml:space="preserve">
<style type="text/css">
	.st0{display:none;}
	.st1{display:inline;}
	.st2{fill:none;stroke:#000000;stroke-width:5;stroke-miterlimit:10;}
	.st3{fill:#101820;}
	.st4{display:inline;fill:none;stroke:#4A5568;stroke-width:5;stroke-linecap:round;stroke-linejoin:round;}
	.st5{fill:none;stroke:#484648;stroke-width:15;stroke-miterlimit:5.6889;}
	.st6{fill:none;stroke:#484648;stroke-width:15;stroke-miterlimit:2.2756;}
</style>
<g class="st0">
	<g id="Layer_2_2_" class="st1">
		<g>
			<path class="st2" d="M256.2,16.1v223.5h-92.4v44.3L130.9,251l-29.5,29.5V242c0,0-57.6,3.5-57.6-57.6s0-126.3,0-126.3
				s7.6-41.9,33.1-41.9S256.2,16.1,256.2,16.1z"/>
			<line class="st2" x1="115.4" y1="64.4" x2="213.2" y2="64.4"/>
			<line class="st2" x1="115.4" y1="101.1" x2="213.2" y2="101.1"/>
			<path class="st2" d="M256.2,167.5H78.7c0,0-34.2,16.8-22.3,56.5"/>
			<polyline class="st2" points="256.2,195.7 104.9,195.7 85.7,195.7 			"/>
			<line class="st2" x1="101.5" y1="280.3" x2="101.5" y2="195.7"/>
			<line class="st2" x1="163.8" y1="283.9" x2="163.8" y2="195.7"/>
		</g>
	</g>
</g>
<g class="st0">
	<g id="Layer_13_1_" class="st1">
		<path class="st3" d="M229.7,282.8H70.3c-14.6,0-26.5-11.9-26.5-26.5v-97.4c0-14.6,11.9-26.5,26.5-26.5h159.3
			c14.6,0,26.5,11.9,26.5,26.5v97.4C256.2,270.9,244.3,282.8,229.7,282.8z M70.2,150c-4.9,0-8.8,3.9-8.8,8.8v97.4
			c0,4.9,3.9,8.8,8.8,8.8h159.3c4.9,0,8.8-3.9,8.8-8.8v-97.4c0-4.9-3.9-8.8-8.8-8.8L70.2,150L70.2,150z"/>
		<path class="st3" d="M220.8,150H79.2c-4.9,0-8.8-3.9-8.8-8.8V88.1c0-39.1,31.7-70.9,70.9-70.9H159c39.1,0,70.9,31.7,70.9,70.9
			v53.1C229.7,146.1,225.6,150,220.8,150z M87.9,132.3h123.9V88.1c0-29.4-23.8-53.1-53.1-53.1H141c-29.3,0-53,23.8-53,53.1
			L87.9,132.3L87.9,132.3z"/>
		<path class="st3" d="M150,212c-9.8,0-17.7-8-17.7-17.7c0-9.8,8-17.7,17.7-17.7s17.7,8,17.7,17.7C167.6,204.1,159.8,212,150,212z"
			/>
		<rect x="141.1" y="203.1" class="st3" width="17.7" height="35.4"/>
	</g>
</g>
<g class="st0">
	<path class="st4" d="M220.4,262.6h70.4v-28.2c0-23.4-19-42.2-42.2-42.2c-13.4,0-25.5,6.3-33.2,16.1 M220.4,262.6H79.6 M220.4,262.6
		v-28.2c0-9.2-1.8-18-5-26.2 M79.6,262.6H9.2v-28.2c0-23.4,19-42.2,42.2-42.2c13.4,0,25.5,6.3,33.2,16.1 M79.6,262.6v-28.2
		c0-9.2,1.8-18,5-26.2 M84.6,208.3C95,182.4,120.4,164,150,164s55,18.3,65.4,44.3 M192.2,79.6c0,23.4-19,42.2-42.2,42.2
		s-42.2-19-42.2-42.2s19-42.2,42.2-42.2S192.2,56.3,192.2,79.6z M276.7,121.8c0,15.5-12.6,28.2-28.2,28.2
		c-15.5,0-28.2-12.6-28.2-28.2c0-15.5,12.6-28.2,28.2-28.2S276.7,106.3,276.7,121.8z M79.6,121.8c0,15.5-12.6,28.2-28.2,28.2
		s-28.2-12.6-28.2-28.2c0-15.5,12.6-28.2,28.2-28.2S79.6,106.3,79.6,121.8z"/>
</g>
<g>
	<path class="st5" d="M196.7,117.4c0,0-9.6-8.8-20.8-10.7c-8.1-1.4-16.9,0.9-23.3,13c-15.3,28.5,36.6,26.6,27.6,60.9
		s-43.5,8.3-48.3,4"/>
	<line class="st5" x1="181.2" y1="86.4" x2="174.8" y2="110.7"/>
	<line class="st5" x1="152.5" y1="196.7" x2="147.7" y2="214.8"/>
	<g>
		<path class="st6" d="M277.6,103.3l-40.9,156.2L71.1,209.8c0,0-32.4-7.5-17.8-89.8c0,0-47.4-33.4-26-77.7c0,0,17.4-30.5,54.3,19.3
			c0,0,29.2,47,25.3,66.6c-3.9,19.6-22.7,30.6-26.1,6.1c0,0-1.1-14.3,6.3-26.4"/>
		<path class="st6" d="M237.5,256.9l40.7-156.3l-165.9-50c0,0-31.4-11.7-58.7,66.7"/>
	</g>
</g>
</svg>
