<?xml version="1.0" encoding="utf-8"?>
<!-- Generator: Adobe Illustrator 25.2.1, SVG Export Plug-In . SVG Version: 6.00 Build 0)  -->
<svg version="1.1" id="Layer_1" xmlns="http://www.w3.org/2000/svg" xmlns:xlink="http://www.w3.org/1999/xlink" x="0px" y="0px"
	 viewBox="0 0 300 300" style="enable-background:new 0 0 300 300;" xml:space="preserve">
<style type="text/css">
	.st0{fill:none;stroke:#484648;stroke-width:15;stroke-miterlimit:10;}
</style>
<g>
	<g id="Layer_2_2_">
		<g>
			<path class="st0" d="M245.5,40.3v183.1h-83.1v36.3l-29.6-27l-26.5,24.2v-31.5c0,0-51.8,2.9-51.8-47.2s0-103.5,0-103.5
				s6.8-34.3,29.8-34.3S245.5,40.3,245.5,40.3z"/>
			<line class="st0" x1="118.9" y1="79.9" x2="206.8" y2="79.9"/>
			<line class="st0" x1="118.9" y1="109.9" x2="206.8" y2="109.9"/>
			<path class="st0" d="M245.5,164.3H85.9c0,0-30.8,13.8-20.1,46.3"/>
			<polyline class="st0" points="245.5,187.4 109.4,187.4 92.2,187.4 			"/>
			<line class="st0" x1="106.4" y1="256.8" x2="106.4" y2="187.4"/>
			<line class="st0" x1="162.4" y1="259.7" x2="162.4" y2="187.4"/>
		</g>
	</g>
</g>
</svg>
