<?xml version="1.0" encoding="utf-8"?>
<!-- Generator: Adobe Illustrator 25.2.1, SVG Export Plug-In . SVG Version: 6.00 Build 0)  -->
<svg version="1.1" id="Layer_1" xmlns="http://www.w3.org/2000/svg" xmlns:xlink="http://www.w3.org/1999/xlink" x="0px" y="0px"
	 viewBox="0 0 300 300" style="enable-background:new 0 0 300 300;" xml:space="preserve">
<style type="text/css">
	.st0{display:none;}
	.st1{display:inline;}
	.st2{fill:none;stroke:#000000;stroke-width:5;stroke-miterlimit:10;}
	.st3{fill:#484648;stroke:#000000;stroke-miterlimit:10;}
</style>
<g class="st0">
	<g id="Layer_2_2_" class="st1">
		<g>
			<path class="st2" d="M256.2,16.1v223.5h-92.4v44.3L130.9,251l-29.5,29.5V242c0,0-57.6,3.5-57.6-57.6s0-126.3,0-126.3
				s7.6-41.9,33.1-41.9S256.2,16.1,256.2,16.1z"/>
			<line class="st2" x1="115.4" y1="64.4" x2="213.2" y2="64.4"/>
			<line class="st2" x1="115.4" y1="101.1" x2="213.2" y2="101.1"/>
			<path class="st2" d="M256.2,167.5H78.7c0,0-34.2,16.8-22.3,56.5"/>
			<polyline class="st2" points="256.2,195.7 104.9,195.7 85.7,195.7 			"/>
			<line class="st2" x1="101.5" y1="280.3" x2="101.5" y2="195.7"/>
			<line class="st2" x1="163.8" y1="283.9" x2="163.8" y2="195.7"/>
		</g>
	</g>
</g>
<g>
	<g id="Layer_13_1_">
		<path class="st3" d="M225.9,276.4H74.2c-13.9,0-25.2-11.3-25.2-25.2v-92.7c0-13.9,11.3-25.2,25.2-25.2h151.6
			c13.9,0,25.2,11.3,25.2,25.2v92.7C251.1,265.1,239.8,276.4,225.9,276.4z M74.1,150c-4.7,0-8.4,3.7-8.4,8.4v92.7
			c0,4.7,3.7,8.4,8.4,8.4h151.6c4.7,0,8.4-3.7,8.4-8.4v-92.7c0-4.7-3.7-8.4-8.4-8.4L74.1,150L74.1,150z"/>
		<path class="st3" d="M217.4,150H82.7c-4.7,0-8.4-3.7-8.4-8.4V91.1c0-37.2,30.2-67.5,67.5-67.5h16.8c37.2,0,67.5,30.2,67.5,67.5
			v50.5C225.9,146.3,222,150,217.4,150z M90.9,133.2h117.9V91.1c0-28-22.7-50.5-50.5-50.5h-16.8C113.6,40.5,91,63.2,91,91.1
			L90.9,133.2L90.9,133.2z"/>
		<path class="st3" d="M150,209c-9.3,0-16.8-7.6-16.8-16.8c0-9.3,7.6-16.8,16.8-16.8s16.8,7.6,16.8,16.8
			C166.8,201.5,159.4,209,150,209z"/>
		<rect x="141.6" y="200.5" class="st3" width="16.8" height="33.7"/>
	</g>
</g>
</svg>
